<svg width="64" height="100" viewBox="0 0 64 100" fill="none" xmlns="http://www.w3.org/2000/svg">
<path d="M48.352 85.4158C46.4584 84.9743 43.3133 84.2407 42.7867 83.566C42.8135 83.3796 43.0436 82.5032 44.9961 80.5508C46.0194 79.5269 46.9716 78.5886 47.8564 77.7172C55.4482 70.2329 58.5909 67.1357 58.5909 57.5763C58.5909 52.0997 57.0253 46.5035 53.9385 40.9431L53.231 39.669L51.7947 39.9138C46.0169 40.8982 41.4082 43.2405 37.8707 45.8452C39.7478 42.4128 41.4222 39.9557 42.7861 38.2194H42.7849C42.7922 38.2109 42.8001 38.2006 42.8074 38.1921C43.6266 37.1512 44.3335 36.3696 44.9019 35.7987C45.7916 34.8538 46.906 33.7576 48.2226 32.6499L47.0165 31.2793C39.2723 22.4771 31.403 17.4961 28.4406 15.6208L28.2141 15.4793C26.589 14.2957 25.6283 12.4179 25.6283 10.3975C25.6283 6.93225 28.4467 4.1132 31.9125 4.1132C35.3778 4.1132 38.1968 6.93225 38.1968 10.3975C38.1968 12.5151 37.2428 14.6333 35.4719 15.8024C36.4928 16.5323 37.5786 17.3461 38.7203 18.2558C40.9885 16.2931 42.31 13.443 42.31 10.3975C42.31 4.66462 37.646 0 31.9125 0C26.1791 0 21.5145 4.66462 21.5145 10.3975C21.5145 13.9082 23.2671 17.1573 26.2034 19.0891L28.0125 20.2623C31.2761 22.4073 36.8334 26.3407 42.4758 32.393C39.7065 34.9758 34.4529 41.3798 28.5275 56.2396L32.249 57.9765C32.3097 57.8647 38.2575 47.1254 51.0399 44.2541C53.3215 48.7541 54.4771 53.2293 54.4771 57.5763C54.4771 65.4146 52.2727 67.5875 44.9687 74.7876C44.0778 75.6657 43.1183 76.6107 42.0871 77.6419C40.1748 79.5548 38.0748 82.0854 38.8211 84.6986C39.6525 87.6106 43.2507 88.4499 47.4174 89.4215C52.3522 90.5723 56.2407 91.7007 58.0395 94.2258C58.1021 94.3066 58.1695 94.4013 58.2424 94.5167C58.266 94.5556 58.2885 94.5963 58.3116 94.6364C58.3778 94.7487 58.4452 94.8769 58.5144 95.0214C58.5824 95.1611 58.6426 95.3062 58.6996 95.4538C58.7294 95.5309 58.7592 95.6074 58.7889 95.6918C58.8059 95.7441 58.8296 95.792 58.846 95.8449H58.8375C59.1387 96.7692 59.381 98.0955 59.3895 99.9587H63.2458V97.9018C63.2458 88.8895 54.2828 86.7992 48.352 85.4158Z" fill="white"/>
<path d="M53.5481 95.8862H4.39984C5.53487 92.1672 9.94383 90.836 15.8285 89.4629C19.9951 88.4912 23.5934 87.6519 24.4247 84.74C25.1711 82.1268 23.0711 79.5962 21.1581 77.6832C20.1269 76.652 19.168 75.7071 18.2771 74.8289C10.9726 67.6289 8.76871 65.4566 8.76871 57.6176C8.76871 50.2682 12.5279 38.3998 28.5695 25.2046L25.564 22.3655C8.28288 36.5804 4.65491 49.3821 4.65491 57.6176C4.65491 67.1777 7.79765 70.2743 15.3894 77.7579C16.2736 78.63 17.2259 79.5683 18.2498 80.5922C20.2022 82.5446 20.4318 83.4215 20.4591 83.6074C19.932 84.2827 16.7874 85.0157 14.8939 85.4572C8.96305 86.8406 0 88.9309 0 97.9431V99.9994L54.2082 100C54.2908 98.9604 54.2495 97.3656 53.5481 95.8862Z" fill="white" fill-opacity="0.7"/>
</svg>
