<svg width="151" height="54" viewBox="0 0 151 54" fill="none" xmlns="http://www.w3.org/2000/svg">
<path d="M112.893 27.8851C112.936 27.941 112.971 28.0376 113.025 28.0452C113.183 28.0675 113.274 27.9671 113.296 27.8585C113.306 27.8112 113.224 27.7119 113.168 27.7027C113.01 27.677 112.935 27.7739 112.893 27.8851ZM76.5502 44.9399C76.3877 44.414 75.9892 44.4705 75.5643 44.6722C75.4793 44.7125 75.4065 44.9105 75.4541 44.9698C75.8212 45.4257 76.1756 45.1303 76.5502 44.9399ZM35.9022 50.352C35.4139 49.9918 35.0361 50.0343 34.529 50.4803C35.0681 50.5896 35.4546 50.7107 35.9022 50.352ZM107.64 31.2089C106.914 31.3195 106.459 31.4986 106.375 32.2319C106.999 31.9776 107.516 31.8527 107.64 31.2089ZM66.8313 46.6817C66.1165 46.6518 65.6004 46.5497 65.2592 47.074C65.9176 47.4916 66.3315 47.3315 66.8313 46.6817ZM50.7817 48.3774C51.3876 48.9284 52.1839 49.4828 52.9758 48.9111C53.6893 48.3957 54.4333 48.3822 55.2194 48.2952C56.3056 48.1752 57.4154 48.1742 58.5589 47.9365C58.3995 47.7935 58.335 47.6922 58.2845 47.6966C56.2512 47.8723 54.2531 48.3097 52.1781 48.1807C51.7088 48.1516 51.2162 48.2068 50.7817 48.3774ZM8.67723 46.8646C9.4619 46.7061 10.0824 46.8166 10.7159 46.8995C11.2724 46.9725 11.8145 47.2477 12.4712 47.0738C12.4059 46.0025 11.0792 46.3544 10.4355 45.7765C11.3902 45.6031 12.2576 45.4493 13.1426 45.6292C14.6174 45.929 16.1388 46.0839 17.5643 46.5372C18.4448 46.8168 19.3864 46.8499 20.3062 46.9659C20.8744 47.0377 21.4397 47.0928 22.2069 47.3923C20.0868 47.6784 18.3054 46.9517 16.4687 47.0899C16.3408 47.8034 16.8683 47.9024 17.419 47.9792C18.9636 48.1952 20.501 48.4587 22.0543 48.614C26.7884 49.0869 31.5502 49.1863 36.3119 49.2629C38.4203 49.2969 40.5288 49.3359 42.6357 49.322C43.2765 49.3179 43.974 49.3572 44.4986 48.8784C44.779 48.6224 45.2426 48.7497 45.6291 48.7406C46.8017 48.713 47.9845 48.8078 49.1441 48.504C45.0609 48.486 40.9821 48.4406 36.8089 48.1922C37.255 47.8055 37.7083 47.9051 38.1283 47.8885C39.7397 47.8244 41.3439 47.9252 42.9714 47.7729C44.3518 47.6439 45.7904 47.6601 47.2028 47.659C49.8038 47.6573 52.4062 47.5141 54.9913 47.3769C56.8136 47.2802 58.6529 46.8805 60.4913 46.6456C62.5711 46.3798 64.646 46.071 66.7128 45.7671C68.1199 45.5603 69.5167 45.1208 70.9291 44.8071C73.4807 44.2402 76.0875 43.7911 78.5365 42.9767C80.2545 42.4054 82.1627 42.2899 83.7675 41.4702C84.1714 41.2638 84.6684 41.3196 85.1937 41.4465C83.9594 41.9717 82.725 42.497 81.5228 43.0085C81.562 43.2106 81.675 43.3543 81.7971 43.3211C83.3596 42.8969 84.9323 42.5127 86.4709 42.0098C87.8479 41.5599 89.073 40.7761 90.6143 40.642C90.8925 40.6178 91.1188 40.5353 91.4431 40.6017C92.3655 40.7908 93.3123 40.3409 93.5371 39.5974C93.6481 39.2307 93.7301 38.9267 94.1842 38.7517C96.5328 37.8471 98.492 36.4367 100.778 35.4437C102.065 34.8846 103.136 34.0474 104.435 33.4809C104.97 33.2473 105.532 32.9363 105.729 32.1576C103.812 32.8669 102.321 33.8476 100.705 34.6811C99.0751 35.522 97.4888 36.481 95.5704 36.932C102.516 33.3987 109.007 29.3556 115.524 25.4146C116.183 25.4735 115.924 26.0389 116.44 26.2723C120.609 23.2366 125.176 20.5339 129.319 17.4139C127.64 17.8257 126.48 18.8576 125.129 19.6492C123.781 20.4387 122.498 21.3023 121.202 22.1486C119.896 23.0016 118.608 23.8733 117.212 24.6369C119.896 22.4266 123.081 20.6856 125.909 18.597C125.579 18.3425 125.355 18.4789 125.147 18.5491C120.656 20.0583 116.117 21.4963 111.399 22.4387C107.501 23.2171 103.661 24.1745 99.7283 24.8511C97.3805 25.2549 95.0835 25.85 92.7331 26.2704C90.9598 26.5877 89.1507 26.698 87.3716 27.0012C85.6597 27.2932 85.0562 26.7098 85.2274 25.2962C85.3708 24.113 85.3878 22.9322 85.2241 21.7482C85.1813 21.4382 85.2245 21.1156 85.2743 20.8035C85.3332 20.4332 85.6366 20.2471 86.0931 20.2622C89.2476 20.3665 92.1959 19.5131 95.1918 18.936C101.018 17.8134 106.828 16.6316 112.617 15.3896C116.272 14.6055 119.807 13.5145 123.343 12.425C129.48 10.5338 135.111 7.86345 140.769 5.22949C143.235 4.08139 145.521 2.70918 147.804 1.34071C148.312 1.03624 148.74 0.642864 149.189 0.277996C149.547 -0.0121651 149.935 -0.0804214 150.392 0.0979652C150.834 0.27108 151.018 0.526173 150.998 0.949097C150.919 2.65664 150.59 4.33754 150.208 6.01118C150.047 6.71782 149.657 7.32993 148.903 7.80973C148.297 8.19595 147.8 8.70988 147.323 9.20987C145.525 11.0957 143.584 12.8692 141.494 14.5556C137.92 17.4394 134.422 20.3897 131.393 23.6707C128.742 26.542 126.609 29.6659 124.588 32.8433C123.602 34.3947 122.578 35.925 121.39 37.3885C120.176 38.8859 119.41 40.5757 118.493 42.1983C117.781 43.4588 117.165 44.7478 116.117 45.8773C115.565 46.472 115.191 47.1859 114.821 47.8753C114.542 48.3925 114.142 48.8151 113.667 49.293C113.314 48.9649 113.461 48.6619 113.515 48.372C114.109 45.1746 115.462 42.1516 116.825 39.1354C118.847 34.6577 121.423 30.3803 124.162 26.1644C124.452 25.7182 124.706 25.257 125.057 24.6686C124.418 24.7968 124.104 25.0229 123.774 25.2378C119.338 28.1237 115.001 31.1151 110.44 33.866C101.61 39.1919 92.4268 44.0827 82.2172 47.5657C76.4551 49.5314 70.4701 50.9355 64.368 52.0383C58.9836 53.0114 53.5396 53.6512 48.0383 53.8842C42.7389 54.1085 37.4322 53.9597 32.13 53.8336C26.9236 53.7098 21.7317 53.44 16.5616 52.8824C11.6793 52.3558 6.91173 51.4229 2.15871 50.4218C1.92186 50.3718 1.69228 50.2956 1.46414 50.2221C-0.0964661 49.7187 -0.42923 48.7369 0.560318 47.6188C0.849487 47.2923 1.21857 47.1384 1.69228 47.1952C3.13228 47.3676 4.62314 47.1313 6.02972 47.6056C6.66617 47.8203 7.36075 47.8461 8.05241 47.6688C8.5392 47.5442 8.80365 47.3337 8.67723 46.8646Z" fill="#464646"/>
<path d="M79.9179 33.5945C79.6866 34.2598 79.0942 34.5794 78.8899 35.1778C78.7808 35.4972 78.3175 35.4248 77.9675 35.5492C77.8942 36.2054 77.7686 36.8357 77.0867 37.1704C76.8422 37.2904 76.6509 37.4372 76.4051 37.2135C76.1834 37.0117 76.1967 36.7787 76.2722 36.512C76.3813 36.1277 76.6819 35.872 76.9694 35.6984C77.7205 35.2448 78.3376 34.6706 78.854 33.9738C79.0938 33.6504 79.4161 33.5357 79.9179 33.5945Z" fill="#4E686B"/>
<path d="M68.8309 45.252C67.9418 45.8705 67.0011 46.3655 65.9628 46.6531C66.8453 46.0308 67.8157 45.5873 68.8309 45.252Z" fill="#4E686B"/>
</svg>
