<svg width="100%" height="10" viewBox="0 0 241 10" fill="none" xmlns="http://www.w3.org/2000/svg" preserveAspectRatio="none">
<path d="M238.374 4.93366L232.808 5.10511L219.193 4.95105L144.792 3.00883L151.377 3.73437C147.311 3.35421 145.101 3.1869 144.745 3.23411L127.108 2.73965C134.776 2.60796 140.798 2.57401 145.173 2.63695L160.828 3.15294L229.36 5.07116L230.465 4.99411C229.669 4.715 228.702 4.53114 227.563 4.44252L202.368 3.27223L194.692 2.80011L177.085 2.28081L176.715 2.08121L178.06 1.49069L162.573 0.683154L140.999 0.0868064C137.691 0.0114367 135.735 -0.0150628 135.131 0.00812784L126.831 0.78915C119.455 0.788322 111.157 0.874468 101.935 1.04674L83.0192 0.915044C78.4437 0.959769 72.5811 1.08733 65.4295 1.2977C51.0415 1.91391 34.0883 3.20513 14.5699 5.17054L0 8.3576L16.5428 6.60174C17.4731 6.66054 18.3645 6.74005 19.2172 6.84192L21.0024 6.7856L6.47285 8.31619C5.42814 8.50254 3.816 9.06409 1.63674 10C20.3907 7.84824 37.8908 6.37313 54.1386 5.57471C56.2406 5.35274 59.3427 5.31382 63.4451 5.45628C63.6712 5.75362 64.1633 5.97808 64.9224 6.12882L66.2732 6.18016C82.7094 5.35606 100.054 4.99247 118.304 5.08855C119.385 4.91379 120.172 4.47813 120.664 3.78075C123.899 3.70207 127.152 3.75673 130.427 3.94474C138.197 4.22966 145.967 4.57586 153.739 4.9817L161.27 5.54905L176.917 6.00788L178.783 5.99961L194.242 5.00489L213.816 5.49437L241 5.61944C240.05 5.16308 239.174 4.93531 238.374 4.93366ZM81.5887 3.64906L80.8505 3.66398L80.1123 3.67888L81.1214 3.65818L81.5887 3.64906ZM122.088 2.79267L120.218 2.78853C118.257 2.77942 114.997 2.78355 110.436 2.80011C107.831 2.81254 105.228 2.83241 102.629 2.86057C98.0876 2.86389 94.843 2.87797 92.8944 2.90364C87.6943 2.95831 82.4822 3.0577 77.2572 3.20182C79.5803 3.11485 81.9812 3.03452 84.4587 2.96081C86.1482 2.82001 88.0968 2.70074 90.3023 2.603C94.3528 2.45226 98.2938 2.34128 102.127 2.27088C102.129 2.26011 104.625 2.37357 109.612 2.6121L111.527 2.65434C114.134 2.65186 116.743 2.65684 119.355 2.66927L122.088 2.79267ZM83.5392 3.61345L83.0571 3.62174C82.4085 3.63416 82.4145 3.63333 83.074 3.62091C83.2294 3.61843 83.3838 3.61593 83.5392 3.61345ZM85.4927 3.58116L85.0126 3.5886C84.366 3.59937 84.371 3.59936 85.0255 3.58777C85.1809 3.58611 85.3373 3.58364 85.4927 3.58116ZM87.4881 3.55299L86.9721 3.55962C86.2817 3.56956 86.2827 3.56956 86.9751 3.55879L87.4881 3.55299ZM89.4596 3.52897L88.9107 3.53477C88.1725 3.54388 88.1775 3.54388 88.9246 3.53477C89.1029 3.53229 89.2812 3.53062 89.4596 3.52897ZM91.3832 3.50992L90.8443 3.51489C90.1151 3.52152 90.125 3.52152 90.8722 3.51406C91.0425 3.51241 91.2129 3.51075 91.3832 3.50992ZM93.3268 3.49419L92.8078 3.49833C92.1114 3.5033 92.1154 3.5033 92.8187 3.4975L93.3268 3.49419ZM95.0283 3.48424L94.6168 3.48673L94.2054 3.48838C94.3917 3.48756 94.578 3.48672 94.7643 3.48507C94.8529 3.48507 94.9406 3.48507 95.0283 3.48424ZM97.4669 3.48009H96.8652L96.2635 3.48092C96.41 3.48009 96.5564 3.48011 96.7029 3.47929C96.9579 3.48011 97.2129 3.48009 97.4669 3.48009ZM119.722 1.32006L118.913 1.31675L118.103 1.3126L119.337 1.31841L119.722 1.32006ZM121.654 1.33165L121.164 1.32833L120.675 1.32587C120.883 1.3267 121.091 1.32833 121.299 1.32916C121.417 1.32999 121.536 1.33082 121.654 1.33165ZM159.304 1.73833L147.593 1.58344L141.706 1.41945L139.732 1.37555L141.91 1.36892L153.565 1.41033L155.489 1.4973L159.304 1.73833ZM225.047 6.26796L223.936 6.23564L202.399 5.63351L203.508 5.70641L225.047 6.26796ZM217.836 5.78592L214.002 5.75775L212.687 5.77267L213.042 5.79999L217.836 5.78592Z" fill="white"/>
</svg>
