<svg width="100%" height="18" viewBox="0 0 280 18" fill="none" xmlns="http://www.w3.org/2000/svg" preserveAspectRatio="none">
<path d="M277.529 0.611109L276.858 0.659112C275.864 0.74854 275.435 0.991138 275.572 1.38714L274.708 1.5104C270.729 1.29959 262.758 1.33883 250.792 1.62802L239.029 1.51588C231.788 1.4389 216.967 1.11447 194.566 0.542434L175.036 0.265693C151.543 -0.019426 136.886 -0.0751039 131.067 0.0988181C96.736 0.478142 63.9134 1.42355 32.6003 2.93506C21.6247 3.96026 10.7579 5.06002 0 6.23425C14.2398 5.36707 27.7489 4.64938 40.528 4.08125C42.8505 4.33646 45.8213 4.4056 49.4393 4.28838C37.1685 4.79221 25.9648 5.33465 15.8283 5.91601C11.9602 6.2875 8.18268 6.86573 4.49564 7.65045C40.1994 5.4749 77.2692 4.17373 115.706 3.74703C123.002 3.64735 130.355 3.59292 137.762 3.5836L147.485 3.85815L149.092 3.95157C148.804 4.2374 150.405 4.48305 153.895 4.68845C170.363 4.71931 185.378 4.79941 198.936 4.9287C181.294 6.43276 172.508 7.24497 172.574 7.36541C158.028 9.0174 146.569 10.5254 138.2 11.8897C134.555 12.5992 130.87 13.3911 127.142 14.2653L127.052 17.8843C128.557 17.9927 129.996 18.0249 131.373 17.981L135.179 17.8647L148.499 17.0068L163.875 16.6576C207.47 15.8383 239.389 15.4155 259.631 15.3892L255.335 14.7775L253.486 14.7788L236.85 15.1224C233.985 15.111 216.486 15.2672 184.354 15.5908C168.311 15.8271 152.281 16.1757 136.264 16.6366C134.789 16.6625 133.135 16.656 131.3 16.6169C162.986 15.6487 197.73 15.1412 235.533 15.0943C233.853 14.8464 231.79 14.6827 229.346 14.6033L216.639 14.5297C201.844 14.4589 178.879 14.5823 147.744 14.8999C152.724 14.1468 172.625 11.9768 207.448 8.38976C216.939 7.52962 227.763 6.7207 239.917 5.96338L244.861 5.4709L274.189 5.90849C276.177 5.87137 277.434 5.81663 277.956 5.74404L280 1.0938L277.529 0.611109ZM127.622 16.168L127.972 16.2225L128.321 16.277L128.39 16.4766C128.051 16.4494 127.712 16.4221 127.373 16.3949L127.622 16.168ZM128.126 15.7119L128.159 15.8065L128.192 15.9012C128.075 15.9238 127.959 15.9465 127.842 15.9691L128.126 15.7119ZM218.6 5.13175L217.806 5.19792C212.771 5.54177 206.204 6.12885 198.106 6.95931C184.513 8.33165 175.154 9.33157 170.031 9.95905C154.024 11.8107 141.358 13.5546 132.032 15.1908L131.029 15.1647L132.429 14.9124C136.662 14.1793 140.906 13.5106 145.161 12.9063C150.923 12.0546 159.557 10.949 171.064 9.58959C181.778 8.33808 194.084 7.02391 207.982 5.64718L214.637 5.08696L218.6 5.13175ZM144.79 14.4972L144.108 14.7412L143.37 15.0087L140.61 15.0801C140.633 15.0735 141.553 14.9358 143.371 14.6669L144.79 14.4972ZM222.549 16.3831L222.113 16.384C214.034 16.4079 204.555 16.4776 193.675 16.5927C187.785 16.6583 181.931 16.7375 176.116 16.8305L169.587 16.9409L170.021 16.9745C187.584 16.6526 205.094 16.4554 222.549 16.3831ZM205.55 16.2157L200.369 16.3003L196.911 16.3661L194.789 16.4145L193.7 16.4487L193.308 16.4731L193.859 16.474C198.559 16.3643 202.455 16.2782 205.55 16.2157ZM229.26 5.41264L227.185 5.5796C221.4 6.05171 215.672 6.55845 209.997 7.09987L207.822 7.31334L197.039 8.50409L184.263 9.68661C195.177 8.44817 203.673 7.52994 209.75 6.93198C214.785 6.47889 221.289 5.97247 229.26 5.41264ZM212.875 5.06762L211.027 5.16276C209.685 5.22878 208.321 5.30669 206.932 5.39643L200.873 5.80873C201.253 5.77811 203.249 5.62744 206.861 5.35665L209.002 5.21076L211.613 5.05407L212.875 5.06762ZM190.028 3.04453L189.408 3.03678L188.786 3.02895L189.67 3.03991L190.028 3.04453ZM229.582 2.60217L228.494 2.66795L223.55 2.98228C207.67 2.732 193.605 2.54688 181.353 2.42692C185.937 2.45205 191.412 2.4927 197.779 2.54884C201.023 2.51172 204.696 2.49035 208.797 2.48455L212.724 2.49262L229.582 2.60217ZM192.204 3.07241L191.588 3.0645L190.971 3.05651L191.906 3.06849L192.204 3.07241ZM194.583 3.1035L193.879 3.09426L193.175 3.08502L194.165 3.09794L194.583 3.1035ZM196.921 3.13506L195.933 3.12174L194.945 3.10835L196.447 3.1284L196.921 3.13506ZM198.778 3.16137L198.251 3.15393L197.725 3.14649L198.543 3.158L198.778 3.16137ZM201.034 3.19387L200.433 3.18525L199.834 3.17656C200.108 3.18047 200.382 3.18447 200.656 3.18838C200.782 3.19026 200.908 3.19206 201.034 3.19387ZM203.253 3.22644L202.429 3.21438L201.606 3.20224L202.786 3.21955L203.253 3.22644ZM205.363 3.258L204.482 3.24484L203.602 3.23161L204.935 3.25142L205.363 3.258ZM209.836 3.32636L207.665 3.29292L205.822 3.26489L209.836 3.32636ZM212.009 3.36035L210.962 3.34398L209.915 3.32761L211.491 3.3522L212.009 3.36035ZM214.242 3.3959L213.23 3.37977L212.218 3.36371C212.716 3.37154 213.214 3.37945 213.712 3.38736C213.889 3.39018 214.065 3.393 214.242 3.3959ZM216.902 3.43873L216.719 3.43584L216.534 3.43278L214.404 3.39848L216.902 3.43873ZM231.126 3.68438L230.959 3.68141L230.793 3.67843C230.904 3.68039 231.015 3.68243 231.126 3.68438ZM248.008 2.97194L245.856 3.09355C244.083 3.19903 243.038 3.26285 242.72 3.28494C241.087 3.26458 239.699 3.24664 238.557 3.23106C240.051 3.14657 242.414 3.03208 245.647 2.88776L248.008 2.97194ZM276.788 2.75902L278.214 3.47436L277.148 3.56465L277.097 3.46708L278.018 3.40451L276.803 2.8284L276.788 2.75902ZM276.697 2.71352L276.708 2.71932L276.721 2.72519C276.717 2.73052 276.715 2.73584 276.712 2.74117L276.697 2.71352ZM276.726 2.48165L276.77 2.51791L276.812 2.55417C276.795 2.58494 276.78 2.61572 276.763 2.64641C276.751 2.59152 276.738 2.53655 276.726 2.48165Z" fill="white"/>
</svg>
